<!--?xml version="1.0" encoding="utf-8"?-->
<!-- Generator: Adobe Illustrator 18.0.0, SVG Export Plug-In . SVG Version: 6.00 Build 0)  -->

<svg version="1.1" id="_x32_" xmlns="http://www.w3.org/2000/svg" xmlns:xlink="http://www.w3.org/1999/xlink" x="0px" y="0px" viewBox="0 0 512 512" style="width: 256px; height: 256px; opacity: 1;" xml:space="preserve">
<style type="text/css">
	.st0{fill:#4B4B4B;}
</style>
<g>
	<polygon class="st0" points="191.277,228.071 191.277,228.072 191.117,228.072 191.117,283.928 320.887,283.928 320.887,228.072 
		192.463,228.072 	" style="fill: rgb(0, 0, 0);"></polygon>
	<path class="st0" d="M148.102,139.611h-38.381c-22.354,0-40.61,13.442-40.61,29.868v173.044c0,16.425,18.256,29.868,40.61,29.868
		h38.381c10.998,0,20.037-6.623,20.037-14.753V154.364C168.139,146.233,159.1,139.611,148.102,139.611z M92.85,255.345l0.033-75.558
		c0-11.143,8.604-16.405,16.838-16.405h12.947l4.357,0.054l-17.627,47.629L92.85,255.345z" style="fill: rgb(0, 0, 0);"></path>
	<path class="st0" d="M402.281,139.611H363.9c-10.998,0-20.037,6.623-20.037,14.754v203.272c0,8.131,9.039,14.753,20.037,14.753
		h38.381c22.352,0,40.61-13.442,40.61-29.868V169.478C442.891,153.053,424.633,139.611,402.281,139.611z" style="fill: rgb(0, 0, 0);"></path>
	<path class="st0" d="M0,255.957v0.087c0,18.64,15.228,33.867,33.869,33.867H50.32v-67.822H33.869
		C15.228,222.089,0,237.316,0,255.957z" style="fill: rgb(0, 0, 0);"></path>
	<path class="st0" d="M478.133,222.089h-16.451v67.822h16.451c18.641,0,33.867-15.227,33.867-33.867v-0.087
		C512,237.316,496.774,222.089,478.133,222.089z" style="fill: rgb(0, 0, 0);"></path>
</g>
</svg>
